<?xml version="1.0" standalone="no"?>
<!DOCTYPE svg PUBLIC "-//W3C//DTD SVG 20010904//EN"
 "http://www.w3.org/TR/2001/REC-SVG-20010904/DTD/svg10.dtd">
<svg version="1.0" xmlns="http://www.w3.org/2000/svg"
 width="225.000000pt" height="225.000000pt" viewBox="0 0 225.000000 225.000000"
 preserveAspectRatio="xMidYMid meet">
<metadata>
Created by potrace 1.15, written by Peter Selinger 2001-2017
</metadata>
<g transform="translate(0.000000,225.000000) scale(0.100000,-0.100000)"
fill="#000000" stroke="none">
<path d="M985 1991 c-81 -14 -133 -30 -222 -72 -239 -110 -418 -323 -490 -581
-24 -87 -24 -325 0 -422 81 -324 362 -589 692 -651 104 -20 269 -16 373 10
186 45 386 183 499 344 59 84 118 209 140 297 24 99 24 324 -1 419 -53 201
-182 387 -353 509 -69 49 -205 112 -284 131 -75 18 -282 28 -354 16z m345 -82
c284 -72 503 -293 581 -584 29 -112 29 -288 0 -400 -79 -295 -292 -508 -586
-586 -95 -25 -268 -30 -360 -10 -138 30 -300 113 -395 203 -106 99 -193 247
-231 393 -29 110 -29 288 0 400 70 273 281 494 548 575 142 43 296 46 443 9z"/>
<path d="M604 1465 c-11 -27 2 -39 80 -80 42 -22 76 -43 76 -47 0 -4 -35 -8
-77 -10 -76 -3 -78 -4 -78 -28 0 -24 2 -25 78 -28 42 -2 77 -6 77 -10 0 -4
-34 -24 -75 -45 -82 -40 -97 -59 -71 -85 16 -16 21 -15 89 21 40 21 112 58
160 84 121 63 120 66 -68 164 -154 81 -181 90 -191 64z"/>
<path d="M1455 1401 c-184 -96 -187 -102 -83 -156 40 -21 110 -58 156 -82 82
-45 107 -48 119 -17 7 20 -17 40 -98 80 -32 16 -59 32 -59 37 0 4 33 7 74 7
66 0 75 2 81 20 11 33 -3 40 -81 40 -41 0 -74 3 -74 8 0 4 35 25 78 47 64 34
77 45 77 65 0 17 -6 26 -20 28 -11 1 -87 -33 -170 -77z"/>
<path d="M821 852 c-14 -26 3 -83 36 -123 56 -67 152 -79 222 -28 l42 30 46
-30 c100 -67 219 -20 254 100 11 34 10 42 -4 57 -23 22 -51 5 -55 -33 -6 -44
-31 -74 -73 -85 -67 -18 -129 21 -129 82 0 28 -17 48 -42 48 -20 0 -38 -29
-38 -63 0 -28 -34 -62 -71 -70 -37 -9 -97 10 -111 36 -6 12 -14 38 -17 57 -7
41 -43 54 -60 22z"/>
</g>
</svg>
